<?xml version="1.0" encoding="UTF-8" standalone="no"?>
<!DOCTYPE svg PUBLIC "-//W3C//DTD SVG 1.1//EN" "http://www.w3.org/Graphics/SVG/1.1/DTD/svg11.dtd">
<svg width="100%" height="100%" viewBox="0 0 100 100" version="1.1" xmlns="http://www.w3.org/2000/svg" xmlns:xlink="http://www.w3.org/1999/xlink" xml:space="preserve" xmlns:serif="http://www.serif.com/" style="fill-rule:evenodd;clip-rule:evenodd;stroke-linecap:round;">
    <g transform="matrix(2.54766e-17,-0.416066,0.416066,2.54766e-17,-39.6621,76.5373)">
        <g transform="matrix(3.15964e-16,5.16008,-5.16008,3.15964e-16,251.008,132.882)">
            <path d="M19.626,41.534L18,39.378L20.925,39.828L19.626,41.534Z" style="fill:rgb(0,46,122);stroke:rgb(0,46,122);stroke-width:0.5px;"/>
        </g>
        <g transform="matrix(3.15964e-16,5.16008,-5.16008,3.15964e-16,251.008,132.882)">
            <path d="M19.688,31.359L21.225,33.378L18.15,33.378L19.688,31.359Z" style="fill:rgb(0,46,122);stroke:rgb(0,46,122);stroke-width:0.5px;"/>
        </g>
        <g transform="matrix(3.15964e-16,5.16008,-5.16008,3.15964e-16,251.008,132.882)">
            <path d="M15.65,36.46L17.1,34.578L17.025,38.253L15.65,36.46Z" style="fill:rgb(0,46,122);stroke:rgb(0,46,122);stroke-width:0.5px;"/>
        </g>
        <g transform="matrix(3.15964e-16,5.16008,-5.16008,3.15964e-16,251.008,132.882)">
            <path d="M19.626,41.534L8.025,56.778L0,56.778L15.65,36.46L17.025,38.253L17.1,34.578L15.65,36.46L0.75,17.028L8.775,17.028L19.688,31.359L18.15,33.378L21.225,33.378L19.688,31.359L30.6,17.028L38.475,17.028L23.494,36.436L22.05,34.578L21.975,38.403L23.494,36.436L39.3,56.778L31.125,56.778L19.626,41.534L20.925,39.828L18,39.378L19.626,41.534Z" style="fill:rgb(0,46,122);stroke:rgb(0,46,122);stroke-width:0.5px;"/>
        </g>
        <g transform="matrix(3.15964e-16,5.16008,-5.16008,3.15964e-16,251.008,132.882)">
            <path d="M23.494,36.436L21.975,38.403L22.05,34.578L23.494,36.436Z" style="fill:rgb(0,46,122);stroke:rgb(0,46,122);stroke-width:0.5px;"/>
        </g>
    </g>
    <g transform="matrix(2.54766e-17,-0.416066,0.416066,2.54766e-17,-55.2877,76.5373)">
        <g transform="matrix(3.15964e-16,5.16008,-5.16008,3.15964e-16,251.008,132.882)">
            <path d="M19.626,41.534L18,39.378L20.925,39.828L19.626,41.534Z" style="fill:rgb(254,106,0);stroke:rgb(254,106,0);stroke-width:0.5px;"/>
        </g>
        <g transform="matrix(3.15964e-16,5.16008,-5.16008,3.15964e-16,251.008,132.882)">
            <path d="M19.688,31.359L21.225,33.378L18.15,33.378L19.688,31.359Z" style="fill:rgb(254,106,0);stroke:rgb(254,106,0);stroke-width:0.5px;"/>
        </g>
        <g transform="matrix(3.15964e-16,5.16008,-5.16008,3.15964e-16,251.008,132.882)">
            <path d="M15.65,36.46L17.1,34.578L17.025,38.253L15.65,36.46Z" style="fill:rgb(254,106,0);stroke:rgb(254,106,0);stroke-width:0.5px;"/>
        </g>
        <g transform="matrix(3.15964e-16,5.16008,-5.16008,3.15964e-16,251.008,132.882)">
            <path d="M19.626,41.534L8.025,56.778L0,56.778L15.65,36.46L17.025,38.253L17.1,34.578L15.65,36.46L0.75,17.028L8.775,17.028L19.688,31.359L18.15,33.378L21.225,33.378L19.688,31.359L30.6,17.028L38.475,17.028L23.494,36.436L22.05,34.578L21.975,38.403L23.494,36.436L39.3,56.778L31.125,56.778L19.626,41.534L20.925,39.828L18,39.378L19.626,41.534Z" style="fill:rgb(254,106,0);stroke:rgb(254,106,0);stroke-width:0.5px;"/>
        </g>
        <g transform="matrix(3.15964e-16,5.16008,-5.16008,3.15964e-16,251.008,132.882)">
            <path d="M23.494,36.436L21.975,38.403L22.05,34.578L23.494,36.436Z" style="fill:rgb(254,106,0);stroke:rgb(254,106,0);stroke-width:0.5px;"/>
        </g>
    </g>
</svg>
