<?xml version="1.0" encoding="UTF-8" standalone="no"?>
<!DOCTYPE svg PUBLIC "-//W3C//DTD SVG 1.1//EN" "http://www.w3.org/Graphics/SVG/1.1/DTD/svg11.dtd">
<svg width="100%" height="100%" viewBox="0 0 500 100" version="1.1" xmlns="http://www.w3.org/2000/svg" xmlns:xlink="http://www.w3.org/1999/xlink" xml:space="preserve" xmlns:serif="http://www.serif.com/" style="fill-rule:evenodd;clip-rule:evenodd;stroke-linecap:round;">
    <g id="svgGroup" transform="matrix(2.07366e-17,-0.338655,0.338655,2.07366e-17,14.999,85)">
        <g transform="matrix(3.15964e-16,5.16008,-5.16008,3.15964e-16,251.008,132.882)">
            <path d="M54.075,22.973L54.075,27.603L52.95,24.903C53.278,24.22 53.653,23.577 54.075,22.973Z" style="fill:rgb(100,160,255);stroke:rgb(100,160,255);stroke-width:0.5px;"/>
        </g>
        <g transform="matrix(3.15964e-16,5.16008,-5.16008,3.15964e-16,251.008,132.882)">
            <path d="M81.586,23.949C82.787,22.173 84.392,20.666 86.4,19.428C89.4,17.578 92.9,16.653 96.9,16.653C100.1,16.653 102.925,17.278 105.375,18.528C107.825,19.778 109.738,21.678 111.113,24.228C112.488,26.778 113.175,30.003 113.175,33.903L113.175,56.778L105.975,56.778L105.975,34.728C105.975,30.878 105.075,27.978 103.275,26.028C101.475,24.078 98.95,23.103 95.7,23.103C93.3,23.103 91.2,23.603 89.4,24.603C87.6,25.603 86.213,27.078 85.238,29.028C84.263,30.978 83.775,33.403 83.775,36.303L83.775,56.778L76.575,56.778L76.575,34.728C76.575,30.878 75.688,27.978 73.913,26.028C72.138,24.078 69.6,23.103 66.3,23.103C63.95,23.103 61.875,23.603 60.075,24.603C58.275,25.603 56.875,27.078 55.875,29.028C54.875,30.978 54.375,33.403 54.375,36.303L54.375,56.778L47.175,56.778L47.175,17.028L54.075,17.028L54.075,22.973C53.653,23.577 53.278,24.22 52.95,24.903L54.075,27.603L54.075,22.973C55.258,21.279 56.808,19.897 58.725,18.828C61.325,17.378 64.35,16.653 67.8,16.653C71.6,16.653 74.875,17.59 77.625,19.465C79.296,20.604 80.616,22.099 81.586,23.949C80.992,24.827 80.497,25.769 80.1,26.778L83.025,27.978C82.691,26.487 82.212,25.144 81.586,23.949Z" style="fill:rgb(100,160,255);stroke:rgb(100,160,255);stroke-width:0.5px;"/>
        </g>
        <g transform="matrix(3.15964e-16,5.16008,-5.16008,3.15964e-16,251.008,132.882)">
            <path d="M81.586,23.949C82.212,25.144 82.691,26.487 83.025,27.978L80.1,26.778C80.497,25.769 80.992,24.827 81.586,23.949Z" style="fill:rgb(100,160,255);stroke:rgb(100,160,255);stroke-width:0.5px;"/>
        </g>
        <g transform="matrix(3.15964e-16,5.16008,-5.16008,3.15964e-16,251.008,132.882)">
            <path d="M19.626,41.534L18,39.378L20.925,39.828L19.626,41.534Z" style="fill:rgb(255,140,30);stroke:rgb(255,140,30);stroke-width:0.5px;"/>
        </g>
        <g transform="matrix(3.15964e-16,5.16008,-5.16008,3.15964e-16,251.008,132.882)">
            <path d="M19.688,31.359L21.225,33.378L18.15,33.378L19.688,31.359Z" style="fill:rgb(255,140,30);stroke:rgb(255,140,30);stroke-width:0.5px;"/>
        </g>
        <g transform="matrix(3.15964e-16,5.16008,-5.16008,3.15964e-16,251.008,132.882)">
            <path d="M15.65,36.46L17.1,34.578L17.025,38.253L15.65,36.46Z" style="fill:rgb(255,140,30);stroke:rgb(255,140,30);stroke-width:0.5px;"/>
        </g>
        <g transform="matrix(3.15964e-16,5.16008,-5.16008,3.15964e-16,251.008,132.882)">
            <path d="M19.626,41.534L8.025,56.778L0,56.778L15.65,36.46L17.025,38.253L17.1,34.578L15.65,36.46L0.75,17.028L8.775,17.028L19.688,31.359L18.15,33.378L21.225,33.378L19.688,31.359L30.6,17.028L38.475,17.028L23.494,36.436L22.05,34.578L21.975,38.403L23.494,36.436L39.3,56.778L31.125,56.778L19.626,41.534L20.925,39.828L18,39.378L19.626,41.534Z" style="fill:rgb(255,140,30);stroke:rgb(255,140,30);stroke-width:0.5px;"/>
        </g>
        <g transform="matrix(3.15964e-16,5.16008,-5.16008,3.15964e-16,251.008,132.882)">
            <path d="M23.494,36.436L21.975,38.403L22.05,34.578L23.494,36.436Z" style="fill:rgb(255,140,30);stroke:rgb(255,140,30);stroke-width:0.5px;"/>
        </g>
        <g transform="matrix(3.15964e-16,5.16008,-5.16008,3.15964e-16,251.008,132.882)">
            <path d="M133.35,23.691C134.473,21.635 136.098,20.014 138.225,18.828C140.825,17.378 144.025,16.653 147.825,16.653L147.825,23.628C147.525,23.578 147.237,23.553 146.962,23.553L146.175,23.553C142.325,23.553 139.275,24.703 137.025,27.003C134.775,29.303 133.65,32.628 133.65,36.978L133.65,56.778L126.45,56.778L126.45,17.028L133.35,17.028L133.35,23.691C133.1,24.149 132.875,24.628 132.675,25.128L133.35,27.828L133.35,23.691Z" style="fill:rgb(100,160,255);stroke:rgb(100,160,255);stroke-width:0.5px;"/>
        </g>
        <g transform="matrix(3.15964e-16,5.16008,-5.16008,3.15964e-16,251.008,132.882)">
            <path d="M133.35,23.691L133.35,27.828L132.675,25.128C132.875,24.628 133.1,24.149 133.35,23.691Z" style="fill:rgb(100,160,255);stroke:rgb(100,160,255);stroke-width:0.5px;"/>
        </g>
        <g transform="matrix(3.15964e-16,5.16008,-5.16008,3.15964e-16,251.008,132.882)">
            <path d="M173.1,52.578L176.1,46.878C177.8,48.028 179.9,49.003 182.4,49.803C184.9,50.603 187.45,51.003 190.05,51.003C193.4,51.003 195.813,50.528 197.288,49.578C198.763,48.628 199.5,47.303 199.5,45.603C199.5,44.353 199.05,43.378 198.15,42.678C197.25,41.978 196.062,41.453 194.587,41.103C193.112,40.753 191.475,40.44 189.675,40.165C187.875,39.89 186.075,39.54 184.275,39.115C182.475,38.69 180.825,38.09 179.325,37.315C177.825,36.54 176.625,35.465 175.725,34.09C174.825,32.715 174.375,30.878 174.375,28.578C174.375,26.178 175.05,24.078 176.4,22.278C177.75,20.478 179.663,19.09 182.138,18.115C184.613,17.14 187.55,16.653 190.95,16.653C193.55,16.653 196.187,16.965 198.862,17.59C201.537,18.215 203.725,19.103 205.425,20.253L202.35,25.953C200.55,24.753 198.675,23.928 196.725,23.478C194.775,23.028 192.825,22.803 190.875,22.803C187.725,22.803 185.375,23.315 183.825,24.34C182.275,25.365 181.5,26.678 181.5,28.278C181.5,29.628 181.963,30.665 182.888,31.39C183.813,32.115 185.012,32.678 186.487,33.078C187.962,33.478 189.6,33.815 191.4,34.09C193.2,34.365 195,34.715 196.8,35.14C198.6,35.565 200.237,36.153 201.712,36.903C203.187,37.653 204.387,38.703 205.312,40.053C206.237,41.403 206.7,43.203 206.7,45.453C206.7,47.853 206,49.928 204.6,51.678C203.2,53.428 201.225,54.79 198.675,55.765C196.125,56.74 193.075,57.228 189.525,57.228C186.225,57.228 183.087,56.778 180.112,55.878C177.137,54.978 174.8,53.878 173.1,52.578Z" style="fill:rgb(100,160,255);stroke:rgb(100,160,255);stroke-width:0.5px;"/>
        </g>
        <g transform="matrix(3.15964e-16,5.16008,-5.16008,3.15964e-16,251.008,132.882)">
            <rect x="157.2" y="17.028" width="7.2" height="39.75" style="fill:rgb(100,160,255);stroke:rgb(100,160,255);stroke-width:0.5px;"/>
        </g>
        <g transform="matrix(3.15964e-16,5.16008,-5.16008,3.15964e-16,251.008,132.882)">
            <path d="M160.8,9.378C159.4,9.378 158.237,8.928 157.312,8.028C156.387,7.128 155.925,6.028 155.925,4.728C155.925,3.378 156.387,2.253 157.312,1.353C158.237,0.453 159.4,0.003 160.8,0.003C162.2,0.003 163.362,0.44 164.287,1.315C165.212,2.19 165.675,3.278 165.675,4.578C165.675,5.928 165.225,7.065 164.325,7.99C163.425,8.915 162.25,9.378 160.8,9.378Z" style="fill:rgb(100,160,255);stroke:rgb(100,160,255);stroke-width:0.5px;"/>
        </g>
    </g>
</svg>